<svg width="300" height="158" viewBox="0 0 300 158" fill="none" xmlns="http://www.w3.org/2000/svg">
<mask id="mask0_102_3" style="mask-type:luminance" maskUnits="userSpaceOnUse" x="23" y="37" width="24" height="54">
<path d="M27.95 89.77C27.95 75.75 36.21 66.53 46.94 59.13L44.8 43.37L23.41 37.76L27.95 90.39C27.95 90.19 27.95 89.98 27.95 89.77Z" fill="white"/>
</mask>
<g mask="url(#mask0_102_3)">
<path d="M28.09 44.9L23.85 43.64C23.11 43.42 22.51 42.52 22.53 41.63L22.65 36.61C22.67 35.73 23.3 35.19 24.04 35.41L28.28 36.67C29.02 36.89 29.62 37.79 29.6 38.68L29.48 43.7C29.46 44.58 28.84 45.12 28.09 44.9Z" fill="url(#paint0_linear_102_3)"/>
<path d="M35.96 47.24L31.72 45.98C30.98 45.76 30.38 44.86 30.4 43.97L30.52 38.95C30.54 38.07 31.17 37.53 31.91 37.75L36.15 39.01C36.89 39.23 37.49 40.13 37.47 41.02L37.35 46.04C37.33 46.93 36.7 47.47 35.96 47.24Z" fill="url(#paint1_linear_102_3)"/>
<path d="M43.83 49.59L39.59 48.33C38.85 48.11 38.25 47.21 38.27 46.32L38.39 41.3C38.41 40.42 39.04 39.88 39.78 40.1L44.02 41.36C44.76 41.58 45.36 42.48 45.34 43.37L45.22 48.39C45.2 49.27 44.57 49.81 43.83 49.59Z" fill="url(#paint2_linear_102_3)"/>
<path d="M51.7 51.93L47.46 50.67C46.72 50.45 46.12 49.55 46.14 48.66L46.26 43.64C46.28 42.76 46.91 42.22 47.65 42.44L51.89 43.7C52.63 43.92 53.23 44.82 53.21 45.71L53.09 50.73C53.07 51.62 52.44 52.16 51.7 51.93Z" fill="url(#paint3_linear_102_3)"/>
<path d="M27.86 54.5L23.62 53.24C22.88 53.02 22.28 52.12 22.3 51.23L22.42 46.21C22.44 45.33 23.07 44.79 23.81 45.01L28.05 46.27C28.79 46.49 29.39 47.39 29.37 48.28L29.25 53.3C29.23 54.18 28.61 54.72 27.86 54.5Z" fill="url(#paint4_linear_102_3)"/>
<path d="M35.73 56.85L31.49 55.59C30.75 55.37 30.15 54.47 30.17 53.58L30.29 48.56C30.31 47.68 30.94 47.14 31.68 47.36L35.92 48.62C36.66 48.84 37.26 49.74 37.24 50.63L37.12 55.65C37.1 56.53 36.48 57.07 35.73 56.85Z" fill="url(#paint5_linear_102_3)"/>
<path d="M43.6 59.19L39.36 57.93C38.62 57.71 38.02 56.81 38.04 55.92L38.16 50.9C38.18 50.02 38.81 49.48 39.55 49.7L43.79 50.96C44.53 51.18 45.13 52.08 45.11 52.97L44.99 57.99C44.97 58.87 44.34 59.41 43.6 59.19Z" fill="url(#paint6_linear_102_3)"/>
<path d="M51.47 61.54L47.23 60.28C46.49 60.06 45.89 59.16 45.91 58.27L46.03 53.25C46.05 52.37 46.68 51.83 47.42 52.05L51.66 53.31C52.4 53.53 53 54.43 52.98 55.32L52.86 60.34C52.84 61.22 52.21 61.76 51.47 61.54Z" fill="url(#paint7_linear_102_3)"/>
<path d="M27.63 64.1L23.39 62.84C22.65 62.62 22.05 61.72 22.07 60.83L22.19 55.81C22.21 54.93 22.84 54.39 23.58 54.61L27.82 55.87C28.56 56.09 29.16 56.99 29.14 57.88L29.02 62.9C29 63.79 28.38 64.33 27.63 64.1Z" fill="url(#paint8_linear_102_3)"/>
<path d="M35.5 66.45L31.26 65.19C30.52 64.97 29.92 64.07 29.94 63.18L30.06 58.16C30.08 57.28 30.71 56.74 31.45 56.96L35.69 58.22C36.43 58.44 37.03 59.34 37.01 60.23L36.89 65.25C36.87 66.13 36.25 66.67 35.5 66.45Z" fill="url(#paint9_linear_102_3)"/>
<path d="M43.37 68.79L39.13 67.53C38.39 67.31 37.79 66.41 37.81 65.52L37.93 60.5C37.95 59.62 38.58 59.08 39.32 59.3L43.56 60.56C44.3 60.78 44.9 61.68 44.88 62.57L44.76 67.59C44.74 68.48 44.12 69.02 43.37 68.79Z" fill="url(#paint10_linear_102_3)"/>
<path d="M51.24 71.14L47 69.88C46.26 69.66 45.66 68.76 45.68 67.87L45.8 62.85C45.82 61.97 46.45 61.43 47.19 61.65L51.43 62.91C52.17 63.13 52.77 64.03 52.75 64.92L52.63 69.94C52.61 70.82 51.98 71.36 51.24 71.14Z" fill="url(#paint11_linear_102_3)"/>
<path d="M27.4 73.71L23.16 72.45C22.42 72.23 21.82 71.33 21.84 70.44L21.96 65.42C21.98 64.54 22.61 64 23.35 64.22L27.59 65.48C28.33 65.7 28.93 66.6 28.91 67.49L28.79 72.51C28.77 73.39 28.15 73.93 27.4 73.71Z" fill="url(#paint12_linear_102_3)"/>
<path d="M35.27 76.05L31.03 74.79C30.29 74.57 29.69 73.67 29.71 72.78L29.83 67.76C29.85 66.88 30.48 66.34 31.22 66.56L35.46 67.82C36.2 68.04 36.8 68.94 36.78 69.83L36.66 74.85C36.64 75.73 36.02 76.27 35.27 76.05Z" fill="url(#paint13_linear_102_3)"/>
<path d="M43.14 78.4L38.9 77.14C38.16 76.92 37.56 76.02 37.58 75.13L37.7 70.11C37.72 69.23 38.35 68.69 39.09 68.91L43.33 70.17C44.07 70.39 44.67 71.29 44.65 72.18L44.53 77.2C44.51 78.08 43.89 78.62 43.14 78.4Z" fill="url(#paint14_linear_102_3)"/>
<path d="M51.01 80.74L46.77 79.48C46.03 79.26 45.43 78.36 45.45 77.47L45.57 72.45C45.59 71.57 46.22 71.03 46.96 71.25L51.2 72.51C51.94 72.73 52.54 73.63 52.52 74.52L52.4 79.54C52.38 80.43 51.76 80.97 51.01 80.74Z" fill="url(#paint15_linear_102_3)"/>
<path d="M27.17 83.31L22.93 82.05C22.19 81.83 21.59 80.93 21.61 80.04L21.73 75.02C21.75 74.14 22.38 73.6 23.12 73.82L27.36 75.08C28.1 75.3 28.7 76.2 28.68 77.09L28.56 82.11C28.54 82.99 27.92 83.53 27.17 83.31Z" fill="url(#paint16_linear_102_3)"/>
<path d="M35.04 85.65L30.8 84.39C30.06 84.17 29.46 83.27 29.48 82.38L29.6 77.36C29.62 76.48 30.25 75.94 30.99 76.16L35.23 77.42C35.97 77.64 36.57 78.54 36.55 79.43L36.43 84.45C36.41 85.34 35.79 85.88 35.04 85.65Z" fill="url(#paint17_linear_102_3)"/>
<path d="M42.91 88L38.67 86.74C37.93 86.52 37.33 85.62 37.35 84.73L37.47 79.71C37.49 78.83 38.12 78.29 38.86 78.51L43.1 79.77C43.84 79.99 44.44 80.89 44.42 81.78L44.3 86.8C44.28 87.68 43.66 88.22 42.91 88Z" fill="url(#paint18_linear_102_3)"/>
<path d="M50.78 90.35L46.54 89.09C45.8 88.87 45.2 87.97 45.22 87.08L45.34 82.06C45.36 81.18 45.99 80.64 46.73 80.86L50.97 82.12C51.71 82.34 52.31 83.24 52.29 84.13L52.17 89.15C52.15 90.03 51.53 90.57 50.78 90.35Z" fill="url(#paint19_linear_102_3)"/>
<path d="M27.17 92.9L22.93 91.64C22.19 91.42 21.59 90.52 21.61 89.63L21.73 84.61C21.75 83.73 22.38 83.19 23.12 83.41L27.36 84.67C28.1 84.89 28.7 85.79 28.68 86.68L28.56 91.7C28.54 92.58 27.92 93.12 27.17 92.9Z" fill="url(#paint20_linear_102_3)"/>
<path d="M35.04 95.25L30.8 93.99C30.06 93.77 29.46 92.87 29.48 91.98L29.6 86.96C29.62 86.08 30.25 85.54 30.99 85.76L35.23 87.02C35.97 87.24 36.57 88.14 36.55 89.03L36.43 94.05C36.41 94.93 35.79 95.47 35.04 95.25Z" fill="url(#paint21_linear_102_3)"/>
<path d="M42.91 97.59L38.67 96.33C37.93 96.11 37.33 95.21 37.35 94.32L37.47 89.3C37.49 88.42 38.12 87.88 38.86 88.1L43.1 89.36C43.84 89.58 44.44 90.48 44.42 91.37L44.3 96.39C44.28 97.27 43.66 97.81 42.91 97.59Z" fill="url(#paint22_linear_102_3)"/>
<path d="M50.78 99.94L46.54 98.68C45.8 98.46 45.2 97.56 45.22 96.67L45.34 91.65C45.36 90.77 45.99 90.23 46.73 90.45L50.97 91.71C51.71 91.93 52.31 92.83 52.29 93.72L52.17 98.74C52.15 99.62 51.53 100.16 50.78 99.94Z" fill="url(#paint23_linear_102_3)"/>
</g>
<path d="M60.07 56.42C48.92 56.42 44.07 60.6 38.24 66.36C32.32 72.21 27.8 79.7 27.8 88.68C27.8 106.5 42.24 120.94 60.06 120.94C77.88 120.94 92.32 106.5 92.32 88.68C92.33 70.87 77.89 56.42 60.07 56.42ZM60.07 104.66C51.25 104.66 44.1 97.51 44.1 88.69C44.1 79.87 51.25 72.72 60.07 72.72C68.89 72.72 76.04 79.87 76.04 88.69C76.04 97.51 68.89 104.66 60.07 104.66Z" fill="url(#paint24_linear_102_3)"/>
<path d="M120.78 78.84C116.28 78.84 113.08 77.79 110.18 74.89L113.17 71.9C115.36 74.09 117.84 74.8 120.87 74.8C124.82 74.8 127.05 73.12 127.05 70.17C127.05 68.82 126.71 67.77 125.87 67.06C125.11 66.39 124.1 66.01 122.59 65.8L119.06 65.29C116.62 64.91 114.73 64.15 113.42 62.89C111.95 61.54 111.19 59.61 111.19 57.13C111.19 51.92 114.97 48.38 121.2 48.38C125.2 48.38 127.93 49.39 130.49 51.79L129.04 53.24C128.28 54 127.11 54.09 126.18 53.54C124.66 52.64 122.95 52.33 121.03 52.33C117.5 52.33 115.6 54.26 115.6 57C115.6 58.09 115.89 59.1 116.69 59.78C117.45 60.45 118.33 60.87 119.97 61.13L123.54 61.68C126.27 62.1 127.79 62.73 129.09 63.91C130.69 65.38 131.53 67.44 131.53 70.05C131.55 75.56 127.09 78.84 120.78 78.84Z" fill="white"/>
<path d="M157.16 75.82C155.23 77.75 152.7 78.85 149.42 78.85C146.14 78.85 143.62 77.76 141.68 75.82C138.74 72.88 138.65 69.89 138.65 63.62C138.65 57.35 138.73 54.37 141.68 51.42C143.61 49.49 146.14 48.39 149.42 48.39C152.7 48.39 155.22 49.48 157.16 51.42C160.1 54.36 160.19 57.35 160.19 63.62C160.19 69.89 160.11 72.87 157.16 75.82ZM153.88 54.28C152.74 53.1 151.23 52.43 149.42 52.43C147.61 52.43 146.1 53.1 144.96 54.28C143.49 55.88 143.19 57.69 143.19 63.62C143.19 69.55 143.48 71.32 144.96 72.91C146.1 74.09 147.61 74.8 149.42 74.8C151.23 74.8 152.74 74.08 153.88 72.91C155.39 71.35 155.65 69.55 155.65 63.62C155.65 57.69 155.4 55.84 153.88 54.28Z" fill="white"/>
<path d="M169.02 78.59V48.65H173.56V73.34C173.56 73.99 174.09 74.52 174.74 74.52H187.99V78.6H169.02V78.59Z" fill="white"/>
<path d="M209.14 68.71L204.92 56.36C204.81 56.05 204.38 56.05 204.27 56.36L199.93 68.71L198.58 72.58L196.52 78.59H191.68L202.66 48.65H206.32L217.3 78.59H212.46L210.4 72.58L209.14 68.71Z" fill="white"/>
<path d="M240.18 78.59L233.87 65.97H228.19V78.59H223.65V48.65H235.26C240.94 48.65 244.55 52.31 244.55 57.4C244.55 61.69 241.94 64.42 238.58 65.35L244.85 77.4C245.13 77.95 244.74 78.6 244.12 78.6H240.18V78.59ZM234.92 52.73H228.19V60.82C228.19 61.53 228.77 62.11 229.48 62.11H234.92C237.95 62.11 240.01 60.39 240.01 57.44C240.01 54.49 237.95 52.73 234.92 52.73Z" fill="white"/>
<path d="M216 118.31L209.69 105.69H204.01V118.31H199.47V88.37H211.08C216.76 88.37 220.37 92.03 220.37 97.12C220.37 101.41 217.76 104.14 214.4 105.07L220.67 117.12C220.95 117.67 220.56 118.32 219.94 118.32H216V118.31ZM210.74 92.45H204.01V100.54C204.01 101.25 204.59 101.83 205.3 101.83H210.74C213.77 101.83 215.83 100.11 215.83 97.16C215.83 94.21 213.77 92.45 210.74 92.45Z" fill="white"/>
<path d="M111.81 118.31V88.37H130.95V92.45H118.72C117.42 92.45 116.36 93.51 116.36 94.81V101.2H128.81V105.24H116.36V114.24H130.95V118.32H111.81V118.31Z" fill="white"/>
<path d="M171.74 118.31V88.37H190.88V92.45H178.65C177.35 92.45 176.29 93.51 176.29 94.81V101.2H188.74V105.24H176.29V114.24H190.88V118.32H171.74V118.31Z" fill="white"/>
<path d="M156.96 117.25L143.82 97.24V118.31H139.28V89.87C139.28 89.04 139.95 88.37 140.78 88.37H143.44L157.28 109.4V88.37H161.82V118.31H158.92C158.13 118.31 157.39 117.91 156.96 117.25Z" fill="white"/>
<path d="M246.77 115.16C244.54 117.52 241.68 118.57 238.53 118.57C235.25 118.57 232.73 117.48 230.79 115.54C227.89 112.6 227.76 109.61 227.76 103.34C227.76 97.07 227.89 94.09 230.79 91.14C232.72 89.21 235.25 88.11 238.53 88.11C244.84 88.11 248.58 92.27 249.38 97.36H244.84C244.08 94.08 241.9 92.15 238.53 92.15C236.72 92.15 235.21 92.82 234.07 94C232.6 95.6 232.3 97.41 232.3 103.34C232.3 109.27 232.59 111.08 234.07 112.68C235.21 113.86 236.72 114.53 238.53 114.53C240.51 114.53 242.27 113.77 243.45 112.39C244.54 111.13 244.92 109.61 244.92 107.68V106H238.53V103.28C238.53 102.64 239.05 102.13 239.68 102.13H249.46V106.71C249.46 110.61 248.74 113.01 246.77 115.16Z" fill="white"/>
<path d="M267.63 105.99V118.31H263.09V105.99L254.13 88.37H259.09L265.36 101.53L271.63 88.37H276.59L267.63 105.99Z" fill="white"/>
<defs>
<linearGradient id="paint0_linear_102_3" x1="20.6937" y1="42.9576" x2="31.1131" y2="38.7425" gradientUnits="userSpaceOnUse">
<stop stop-color="white"/>
<stop offset="0.9963" stop-color="white"/>
</linearGradient>
<linearGradient id="paint1_linear_102_3" x1="28.5632" y1="45.3034" x2="38.9824" y2="41.0883" gradientUnits="userSpaceOnUse">
<stop stop-color="white"/>
<stop offset="0.9963" stop-color="white"/>
</linearGradient>
<linearGradient id="paint2_linear_102_3" x1="36.4326" y1="47.6493" x2="46.8519" y2="43.4342" gradientUnits="userSpaceOnUse">
<stop stop-color="white"/>
<stop offset="0.9963" stop-color="white"/>
</linearGradient>
<linearGradient id="paint3_linear_102_3" x1="44.3022" y1="49.9951" x2="54.7215" y2="45.78" gradientUnits="userSpaceOnUse">
<stop stop-color="white"/>
<stop offset="0.9963" stop-color="white"/>
</linearGradient>
<linearGradient id="paint4_linear_102_3" x1="20.4644" y1="52.5604" x2="30.8837" y2="48.3453" gradientUnits="userSpaceOnUse">
<stop stop-color="white"/>
<stop offset="0.9963" stop-color="white"/>
</linearGradient>
<linearGradient id="paint5_linear_102_3" x1="28.3338" y1="54.9063" x2="38.7532" y2="50.6912" gradientUnits="userSpaceOnUse">
<stop stop-color="white"/>
<stop offset="0.9963" stop-color="white"/>
</linearGradient>
<linearGradient id="paint6_linear_102_3" x1="36.2033" y1="57.2521" x2="46.6226" y2="53.037" gradientUnits="userSpaceOnUse">
<stop stop-color="white"/>
<stop offset="0.9963" stop-color="white"/>
</linearGradient>
<linearGradient id="paint7_linear_102_3" x1="44.0728" y1="59.5979" x2="54.4921" y2="55.3828" gradientUnits="userSpaceOnUse">
<stop stop-color="white"/>
<stop offset="0.9963" stop-color="white"/>
</linearGradient>
<linearGradient id="paint8_linear_102_3" x1="20.2351" y1="62.1632" x2="30.6544" y2="57.9481" gradientUnits="userSpaceOnUse">
<stop stop-color="white"/>
<stop offset="0.9963" stop-color="white"/>
</linearGradient>
<linearGradient id="paint9_linear_102_3" x1="28.1045" y1="64.5091" x2="38.5239" y2="60.294" gradientUnits="userSpaceOnUse">
<stop stop-color="white"/>
<stop offset="0.9963" stop-color="white"/>
</linearGradient>
<linearGradient id="paint10_linear_102_3" x1="35.974" y1="66.8549" x2="46.3933" y2="62.6398" gradientUnits="userSpaceOnUse">
<stop stop-color="white"/>
<stop offset="0.9963" stop-color="white"/>
</linearGradient>
<linearGradient id="paint11_linear_102_3" x1="43.8434" y1="69.2009" x2="54.2628" y2="64.9857" gradientUnits="userSpaceOnUse">
<stop stop-color="white"/>
<stop offset="0.9963" stop-color="white"/>
</linearGradient>
<linearGradient id="paint12_linear_102_3" x1="20.0057" y1="71.766" x2="30.425" y2="67.5509" gradientUnits="userSpaceOnUse">
<stop stop-color="white"/>
<stop offset="0.9963" stop-color="white"/>
</linearGradient>
<linearGradient id="paint13_linear_102_3" x1="27.8751" y1="74.1118" x2="38.2944" y2="69.8967" gradientUnits="userSpaceOnUse">
<stop stop-color="white"/>
<stop offset="0.9963" stop-color="white"/>
</linearGradient>
<linearGradient id="paint14_linear_102_3" x1="35.7446" y1="76.4577" x2="46.1639" y2="72.2426" gradientUnits="userSpaceOnUse">
<stop stop-color="white"/>
<stop offset="0.9963" stop-color="white"/>
</linearGradient>
<linearGradient id="paint15_linear_102_3" x1="43.6141" y1="78.8035" x2="54.0334" y2="74.5884" gradientUnits="userSpaceOnUse">
<stop stop-color="white"/>
<stop offset="0.9963" stop-color="white"/>
</linearGradient>
<linearGradient id="paint16_linear_102_3" x1="19.7763" y1="81.3688" x2="30.1957" y2="77.1536" gradientUnits="userSpaceOnUse">
<stop stop-color="white"/>
<stop offset="0.9963" stop-color="white"/>
</linearGradient>
<linearGradient id="paint17_linear_102_3" x1="27.6458" y1="83.7146" x2="38.0652" y2="79.4995" gradientUnits="userSpaceOnUse">
<stop stop-color="white"/>
<stop offset="0.9963" stop-color="white"/>
</linearGradient>
<linearGradient id="paint18_linear_102_3" x1="35.5153" y1="86.0605" x2="45.9346" y2="81.8454" gradientUnits="userSpaceOnUse">
<stop stop-color="white"/>
<stop offset="0.9963" stop-color="white"/>
</linearGradient>
<linearGradient id="paint19_linear_102_3" x1="43.3847" y1="88.4063" x2="53.804" y2="84.1912" gradientUnits="userSpaceOnUse">
<stop stop-color="white"/>
<stop offset="0.9963" stop-color="white"/>
</linearGradient>
<linearGradient id="paint20_linear_102_3" x1="19.7765" y1="90.9591" x2="30.1958" y2="86.744" gradientUnits="userSpaceOnUse">
<stop stop-color="white"/>
<stop offset="0.9963" stop-color="white"/>
</linearGradient>
<linearGradient id="paint21_linear_102_3" x1="27.646" y1="93.305" x2="38.0653" y2="89.0899" gradientUnits="userSpaceOnUse">
<stop stop-color="white"/>
<stop offset="0.9963" stop-color="white"/>
</linearGradient>
<linearGradient id="paint22_linear_102_3" x1="35.5154" y1="95.651" x2="45.9348" y2="91.4358" gradientUnits="userSpaceOnUse">
<stop stop-color="white"/>
<stop offset="0.9963" stop-color="white"/>
</linearGradient>
<linearGradient id="paint23_linear_102_3" x1="43.3849" y1="97.9968" x2="53.8042" y2="93.7817" gradientUnits="userSpaceOnUse">
<stop stop-color="white"/>
<stop offset="0.9963" stop-color="white"/>
</linearGradient>
<linearGradient id="paint24_linear_102_3" x1="27.8091" y1="88.6855" x2="92.3316" y2="88.6855" gradientUnits="userSpaceOnUse">
<stop stop-color="white"/>
<stop offset="1" stop-color="white"/>
</linearGradient>
</defs>
</svg>
